<svg width="40" height="39" viewBox="0 0 40 39" fill="none" xmlns="http://www.w3.org/2000/svg">
<g clip-path="url(#clip0_102_3)">
<path d="M4.25 38C4.25 38.4142 4.58579 38.75 5 38.75C5.41421 38.75 5.75 38.4142 5.75 38H4.25ZM5.75 35V34.25H4.25V35H5.75ZM5.75 38L5.75 35H4.25L4.25 38H5.75Z" fill="white"/>
<path d="M5.75 1C5.75 0.585786 5.41421 0.25 5 0.25C4.58579 0.25 4.25 0.585786 4.25 1L5.75 1ZM4.25 4V4.75H5.75V4H4.25ZM4.25 1L4.25 4H5.75L5.75 1L4.25 1Z" fill="white"/>
<path d="M12.25 38C12.25 38.4142 12.5858 38.75 13 38.75C13.4142 38.75 13.75 38.4142 13.75 38H12.25ZM13.75 35V34.25H12.25V35H13.75ZM13.75 38V35H12.25V38H13.75Z" fill="white"/>
<path d="M13.75 1C13.75 0.585786 13.4142 0.25 13 0.25C12.5858 0.25 12.25 0.585786 12.25 1L13.75 1ZM12.25 4V4.75H13.75V4H12.25ZM12.25 1V4H13.75V1L12.25 1Z" fill="white"/>
<path d="M19.25 38C19.25 38.4142 19.5858 38.75 20 38.75C20.4142 38.75 20.75 38.4142 20.75 38H19.25ZM20.75 35V34.25H19.25V35H20.75ZM20.75 38V35H19.25V38H20.75Z" fill="white"/>
<path d="M20.75 1C20.75 0.585786 20.4142 0.25 20 0.25C19.5858 0.25 19.25 0.585786 19.25 1L20.75 1ZM19.25 4V4.75H20.75V4H19.25ZM19.25 1V4H20.75V1L19.25 1Z" fill="white"/>
<path d="M27.25 38C27.25 38.4142 27.5858 38.75 28 38.75C28.4142 38.75 28.75 38.4142 28.75 38H27.25ZM28.75 35V34.25H27.25V35H28.75ZM28.75 38V35H27.25V38H28.75Z" fill="white"/>
<path d="M28.75 1C28.75 0.585786 28.4142 0.25 28 0.25C27.5858 0.25 27.25 0.585786 27.25 1L28.75 1ZM27.25 4V4.75H28.75V4H27.25ZM27.25 1V4H28.75V1L27.25 1Z" fill="white"/>
<path d="M34.25 38C34.25 38.4142 34.5858 38.75 35 38.75C35.4142 38.75 35.75 38.4142 35.75 38H34.25ZM35.75 35V34.25H34.25V35H35.75ZM35.75 38V35H34.25V38H35.75Z" fill="white"/>
<path d="M35.75 1C35.75 0.585786 35.4142 0.25 35 0.25C34.5858 0.25 34.25 0.585786 34.25 1L35.75 1ZM34.25 4V4.75H35.75V4H34.25ZM34.25 1V4H35.75V1L34.25 1Z" fill="white"/>
<rect x="1" y="8" width="38" height="23" rx="4" stroke="white" stroke-width="2"/>
</g>
<defs>
<clipPath id="clip0_102_3">
<rect width="40" height="39" fill="white"/>
</clipPath>
</defs>
</svg>
